<svg xmlns="http://www.w3.org/2000/svg" version="1.1" xmlns:xlink="http://www.w3.org/1999/xlink" xmlns:svgjs="http://svgjs.dev/svgjs" width="1500" height="1687" viewBox="0 0 1500 1687"><g transform="matrix(1,0,0,1,0,0)"><svg viewBox="0 0 320 360" data-background-color="#060101" preserveAspectRatio="xMidYMid meet" height="1687" width="1500" xmlns="http://www.w3.org/2000/svg" xmlns:xlink="http://www.w3.org/1999/xlink"><g id="tight-bounds" transform="matrix(1,0,0,1,0,0)"><svg viewBox="0 0 320 360" height="360" width="320"><rect width="320" height="360" fill="url(#f5b1010d-ae0c-4970-8583-8e8542e8ed16)" mask="url(#9cdf9196-fd8c-4bf1-9472-aae91550c0f4)" data-fill-palette-color="tertiary"></rect><g><svg></svg></g><g><svg viewBox="0 0 320 360" height="360" width="320"><g><path d="M160 340c88.258 0 160-71.742 160-160 0-88.258-71.742-160-160-160-88.258 0-160 71.742-160 160 0 88.258 71.742 160 160 160zM165.161 329.368v-10.323c72.671-2.684 131.2-61.213 133.884-133.884h10.323c-2.684 78.452-65.755 141.523-144.207 144.207zM165.161 30.632c78.452 2.684 141.523 65.755 144.207 144.207h-10.323c-2.684-72.671-61.213-131.2-133.884-133.884zM289.032 180c0 71.123-57.91 129.032-129.032 129.032-71.123 0-129.032-57.91-129.032-129.032 0-71.123 57.91-129.032 129.032-129.032 71.123 0 129.032 57.91 129.032 129.032zM154.839 30.632v10.323c-72.671 2.684-131.2 61.213-133.884 133.884h-10.323c2.684-78.452 65.755-141.523 144.207-144.207zM20.955 185.161c2.684 72.671 61.213 131.2 133.884 133.884v10.323c-78.452-2.684-141.523-65.755-144.207-144.207z" fill="url(#f5b1010d-ae0c-4970-8583-8e8542e8ed16)" fill-rule="nonzero" stroke="none" stroke-width="1" stroke-linecap="butt" stroke-linejoin="miter" stroke-miterlimit="10" stroke-dasharray="" stroke-dashoffset="0" font-family="none" font-weight="none" font-size="none" text-anchor="none" style="mix-blend-mode: normal" data-fill-palette-color="tertiary"></path></g><g transform="matrix(1,0,0,1,64,130.09554655870446)"><svg viewBox="0 0 192 99.8089068825911" height="99.8089068825911" width="192"><g><svg viewBox="0 0 192 99.8089068825911" height="99.8089068825911" width="192"><g><svg viewBox="0 0 192 99.8089068825911" height="99.8089068825911" width="192"><g><svg viewBox="0 0 192 99.8089068825911" height="99.8089068825911" width="192"><g id="textblocktransform"><svg viewBox="0 0 192 99.8089068825911" height="99.8089068825911" width="192" id="textblock"><g><svg viewBox="0 0 192 99.8089068825911" height="99.8089068825911" width="192"><g transform="matrix(1,0,0,1,0,0)"><svg width="192" viewBox="1.75 -31.5 61.75 32.1" height="99.8089068825911" data-palette-color="url(#b790911b-2fb3-48a0-b4c6-6cab5b04e7e7)"></svg></g></svg></g></svg></g></svg></g><g></g></svg></g></svg></g></svg></g></svg></g><defs></defs><mask id="513eb4e9-b9ac-4349-ae82-f522c42d3f8c"><g id="SvgjsG1079"><svg viewBox="0 0 320 360" height="360" width="320"><g><svg></svg></g><g><svg viewBox="0 0 320 360" height="360" width="320"><g><path d="M160 340c88.258 0 160-71.742 160-160 0-88.258-71.742-160-160-160-88.258 0-160 71.742-160 160 0 88.258 71.742 160 160 160zM165.161 329.368v-10.323c72.671-2.684 131.2-61.213 133.884-133.884h10.323c-2.684 78.452-65.755 141.523-144.207 144.207zM165.161 30.632c78.452 2.684 141.523 65.755 144.207 144.207h-10.323c-2.684-72.671-61.213-131.2-133.884-133.884zM289.032 180c0 71.123-57.91 129.032-129.032 129.032-71.123 0-129.032-57.91-129.032-129.032 0-71.123 57.91-129.032 129.032-129.032 71.123 0 129.032 57.91 129.032 129.032zM154.839 30.632v10.323c-72.671 2.684-131.2 61.213-133.884 133.884h-10.323c2.684-78.452 65.755-141.523 144.207-144.207zM20.955 185.161c2.684 72.671 61.213 131.2 133.884 133.884v10.323c-78.452-2.684-141.523-65.755-144.207-144.207z" fill="black" fill-rule="nonzero" stroke="none" stroke-width="1" stroke-linecap="butt" stroke-linejoin="miter" stroke-miterlimit="10" stroke-dasharray="" stroke-dashoffset="0" font-family="none" font-weight="none" font-size="none" text-anchor="none" style="mix-blend-mode: normal"></path></g><g transform="matrix(1,0,0,1,64,130.09554655870446)"><svg viewBox="0 0 192 99.8089068825911" height="99.8089068825911" width="192"><g><svg viewBox="0 0 192 99.8089068825911" height="99.8089068825911" width="192"><g><svg viewBox="0 0 192 99.8089068825911" height="99.8089068825911" width="192"><g><svg viewBox="0 0 192 99.8089068825911" height="99.8089068825911" width="192"><g id="SvgjsG1078"><svg viewBox="0 0 192 99.8089068825911" height="99.8089068825911" width="192" id="SvgjsSvg1077"><g><svg viewBox="0 0 192 99.8089068825911" height="99.8089068825911" width="192"><g transform="matrix(1,0,0,1,0,0)"><svg width="192" viewBox="1.75 -31.5 61.75 32.1" height="99.8089068825911" data-palette-color="url(#b790911b-2fb3-48a0-b4c6-6cab5b04e7e7)"><path d="M4.8-1.6L4.8-1.6 4.8-30Q4.8-30.6 4.1-30.6L4.1-30.6 1.75-30.6 1.75-31.5 11.95-31.5 11.95-30.6 9.6-30.6Q8.9-30.6 8.9-30L8.9-30 8.9-1.6Q8.9-0.9 9.6-0.9L9.6-0.9 11.95-0.9 11.95 0 1.75 0 1.75-0.9 4.1-0.9Q4.8-0.9 4.8-1.6ZM20.6-8.75L20.6-8.75 21.75-4.15Q22.5-1.05 24.15-1.05L24.15-1.05Q25-1.05 25.48-1.68 25.95-2.3 25.95-3.18 25.95-4.05 25.8-4.8L25.8-4.8 26.75-4.95Q26.95-4.2 26.95-3.3L26.95-3.3Q26.95-1.5 25.88-0.45 24.8 0.6 23.1 0.6L23.1 0.6Q18.9 0.6 17.6-4.75L17.6-4.75 16.45-9.35Q15.6-12.6 14.1-13.88 12.6-15.15 9.85-15.15L9.85-15.15 9.85-16.25 21.65-30.6 19.15-30.6 19.15-31.5 25.95-31.5 25.95-30.6 24.6-30.6Q23.8-30.6 23.2-29.9L23.2-29.9 12-16.35Q15.85-16.3 17.8-14.25 19.75-12.2 20.6-8.75ZM43.55-30.6L41.2-30.6 41.2-31.5 53.4-31.5Q57.65-31.5 60.57-28.93 63.5-26.35 63.5-22 63.5-17.65 60.57-15.08 57.65-12.5 53.4-12.5L53.4-12.5 48.35-12.5 48.35-1.6Q48.35-0.9 49.05-0.9L49.05-0.9 52.4-0.9 52.4 0 41.2 0 41.2-0.9 43.55-0.9Q44.25-0.9 44.25-1.6L44.25-1.6 44.25-30Q44.25-30.6 43.55-30.6L43.55-30.6ZM53.15-30.1L53.15-30.1 48.35-30.1 48.35-13.9 53.15-13.9Q56.1-13.9 57.8-16.32 59.5-18.75 59.5-22 59.5-25.25 57.8-27.68 56.1-30.1 53.15-30.1Z" opacity="1" transform="matrix(1,0,0,1,0,0)" fill="white" class="wordmark-text-0" id="SvgjsPath1076"></path></svg></g></svg></g></svg></g></svg></g><g></g></svg></g></svg></g></svg></g></svg></g><defs><mask></mask></defs></svg><rect width="320" height="360" fill="black" stroke="none" visibility="hidden"></rect></g></mask><linearGradient x1="0.054" x2="0.941" y1="0.5" y2="0.5" id="b790911b-2fb3-48a0-b4c6-6cab5b04e7e7"><stop stop-color="#26282a" offset="0"></stop><stop stop-color="#9e9fa0" offset="0.498"></stop><stop stop-color="#26282a" offset="1"></stop></linearGradient><rect width="320" height="360" fill="url(#b790911b-2fb3-48a0-b4c6-6cab5b04e7e7)" mask="url(#513eb4e9-b9ac-4349-ae82-f522c42d3f8c)" data-fill-palette-color="primary"></rect><mask id="9cdf9196-fd8c-4bf1-9472-aae91550c0f4"><g id="SvgjsG1086"><svg viewBox="0 0 320 360" height="360" width="320"><g><svg></svg></g><g><svg viewBox="0 0 320 360" height="360" width="320"><g><path d="M160 340c88.258 0 160-71.742 160-160 0-88.258-71.742-160-160-160-88.258 0-160 71.742-160 160 0 88.258 71.742 160 160 160zM165.161 329.368v-10.323c72.671-2.684 131.2-61.213 133.884-133.884h10.323c-2.684 78.452-65.755 141.523-144.207 144.207zM165.161 30.632c78.452 2.684 141.523 65.755 144.207 144.207h-10.323c-2.684-72.671-61.213-131.2-133.884-133.884zM289.032 180c0 71.123-57.91 129.032-129.032 129.032-71.123 0-129.032-57.91-129.032-129.032 0-71.123 57.91-129.032 129.032-129.032 71.123 0 129.032 57.91 129.032 129.032zM154.839 30.632v10.323c-72.671 2.684-131.2 61.213-133.884 133.884h-10.323c2.684-78.452 65.755-141.523 144.207-144.207zM20.955 185.161c2.684 72.671 61.213 131.2 133.884 133.884v10.323c-78.452-2.684-141.523-65.755-144.207-144.207z" fill="white" fill-rule="nonzero" stroke="none" stroke-width="1" stroke-linecap="butt" stroke-linejoin="miter" stroke-miterlimit="10" stroke-dasharray="" stroke-dashoffset="0" font-family="none" font-weight="none" font-size="none" text-anchor="none" style="mix-blend-mode: normal"></path></g><g transform="matrix(1,0,0,1,64,130.09554655870446)"><svg viewBox="0 0 192 99.8089068825911" height="99.8089068825911" width="192"><g><svg viewBox="0 0 192 99.8089068825911" height="99.8089068825911" width="192"><g><svg viewBox="0 0 192 99.8089068825911" height="99.8089068825911" width="192"><g><svg viewBox="0 0 192 99.8089068825911" height="99.8089068825911" width="192"><g id="SvgjsG1085"><svg viewBox="0 0 192 99.8089068825911" height="99.8089068825911" width="192" id="SvgjsSvg1084"><g><svg viewBox="0 0 192 99.8089068825911" height="99.8089068825911" width="192"><g transform="matrix(1,0,0,1,0,0)"><svg width="192" viewBox="1.75 -31.5 61.75 32.1" height="99.8089068825911" data-palette-color="url(#b790911b-2fb3-48a0-b4c6-6cab5b04e7e7)"></svg></g></svg></g></svg></g></svg></g><g></g></svg></g></svg></g></svg></g></svg></g><defs><mask></mask></defs><mask><g id="SvgjsG1083"><svg viewBox="0 0 320 360" height="360" width="320"><g><svg></svg></g><g><svg viewBox="0 0 320 360" height="360" width="320"><g><path d="M160 340c88.258 0 160-71.742 160-160 0-88.258-71.742-160-160-160-88.258 0-160 71.742-160 160 0 88.258 71.742 160 160 160zM165.161 329.368v-10.323c72.671-2.684 131.2-61.213 133.884-133.884h10.323c-2.684 78.452-65.755 141.523-144.207 144.207zM165.161 30.632c78.452 2.684 141.523 65.755 144.207 144.207h-10.323c-2.684-72.671-61.213-131.2-133.884-133.884zM289.032 180c0 71.123-57.91 129.032-129.032 129.032-71.123 0-129.032-57.91-129.032-129.032 0-71.123 57.91-129.032 129.032-129.032 71.123 0 129.032 57.91 129.032 129.032zM154.839 30.632v10.323c-72.671 2.684-131.2 61.213-133.884 133.884h-10.323c2.684-78.452 65.755-141.523 144.207-144.207zM20.955 185.161c2.684 72.671 61.213 131.2 133.884 133.884v10.323c-78.452-2.684-141.523-65.755-144.207-144.207z" fill="black" fill-rule="nonzero" stroke="none" stroke-width="1" stroke-linecap="butt" stroke-linejoin="miter" stroke-miterlimit="10" stroke-dasharray="" stroke-dashoffset="0" font-family="none" font-weight="none" font-size="none" text-anchor="none" style="mix-blend-mode: normal"></path></g><g transform="matrix(1,0,0,1,64,130.09554655870446)"><svg viewBox="0 0 192 99.8089068825911" height="99.8089068825911" width="192"><g><svg viewBox="0 0 192 99.8089068825911" height="99.8089068825911" width="192"><g><svg viewBox="0 0 192 99.8089068825911" height="99.8089068825911" width="192"><g><svg viewBox="0 0 192 99.8089068825911" height="99.8089068825911" width="192"><g id="SvgjsG1082"><svg viewBox="0 0 192 99.8089068825911" height="99.8089068825911" width="192" id="SvgjsSvg1081"><g><svg viewBox="0 0 192 99.8089068825911" height="99.8089068825911" width="192"><g transform="matrix(1,0,0,1,0,0)"><svg width="192" viewBox="1.75 -31.5 61.75 32.1" height="99.8089068825911" data-palette-color="url(#b790911b-2fb3-48a0-b4c6-6cab5b04e7e7)"><path d="M4.8-1.6L4.8-1.6 4.8-30Q4.8-30.6 4.1-30.6L4.1-30.6 1.75-30.6 1.75-31.5 11.95-31.5 11.95-30.6 9.6-30.6Q8.9-30.6 8.9-30L8.9-30 8.9-1.6Q8.9-0.9 9.6-0.9L9.6-0.9 11.95-0.9 11.95 0 1.75 0 1.75-0.9 4.1-0.9Q4.8-0.9 4.8-1.6ZM20.6-8.75L20.6-8.75 21.75-4.15Q22.5-1.05 24.15-1.05L24.15-1.05Q25-1.05 25.48-1.68 25.95-2.3 25.95-3.18 25.95-4.05 25.8-4.8L25.8-4.8 26.75-4.95Q26.95-4.2 26.95-3.3L26.95-3.3Q26.95-1.5 25.88-0.45 24.8 0.6 23.1 0.6L23.1 0.6Q18.9 0.6 17.6-4.75L17.6-4.75 16.45-9.35Q15.6-12.6 14.1-13.88 12.6-15.15 9.85-15.15L9.85-15.15 9.85-16.25 21.65-30.6 19.15-30.6 19.15-31.5 25.95-31.5 25.95-30.6 24.6-30.6Q23.8-30.6 23.2-29.9L23.2-29.9 12-16.35Q15.85-16.3 17.8-14.25 19.75-12.2 20.6-8.75ZM43.55-30.6L41.2-30.6 41.2-31.5 53.4-31.5Q57.65-31.5 60.57-28.93 63.5-26.35 63.5-22 63.5-17.65 60.57-15.08 57.65-12.5 53.4-12.5L53.4-12.5 48.35-12.5 48.35-1.6Q48.35-0.9 49.05-0.9L49.05-0.9 52.4-0.9 52.4 0 41.2 0 41.2-0.9 43.55-0.9Q44.25-0.9 44.25-1.6L44.25-1.6 44.25-30Q44.25-30.6 43.55-30.6L43.55-30.6ZM53.15-30.1L53.15-30.1 48.35-30.1 48.35-13.9 53.15-13.9Q56.1-13.9 57.8-16.32 59.5-18.75 59.5-22 59.5-25.25 57.8-27.68 56.1-30.1 53.15-30.1Z" opacity="1" transform="matrix(1,0,0,1,0,0)" fill="black" class="wordmark-text-0" id="SvgjsPath1080"></path></svg></g></svg></g></svg></g></svg></g><g></g></svg></g></svg></g></svg></g></svg></g><defs><mask></mask></defs></svg><rect width="320" height="360" fill="black" stroke="none" visibility="hidden"></rect></g></mask></svg><rect width="320" height="360" fill="black" stroke="none" visibility="hidden"></rect></g></mask><linearGradient x1="0.054" x2="0.941" y1="0.5" y2="0.5" id="f5b1010d-ae0c-4970-8583-8e8542e8ed16"><stop stop-color="#26282a" offset="0"></stop><stop stop-color="#9e9fa0" offset="0.498"></stop><stop stop-color="#26282a" offset="1"></stop></linearGradient></svg><rect width="320" height="360" fill="none" stroke="none" visibility="hidden"></rect></g></svg></g></svg>